<svg xmlns="http://www.w3.org/2000/svg" width="233.233" height="15.23" viewBox="0 0 233.233 15.23">
  <g id="Artwork" transform="translate(-54.038 -90.19)">
    <path id="Path_6189" data-name="Path 6189" d="M68.331,99.543l-.354.545a5.616,5.616,0,0,1-2.133,1.951,6.437,6.437,0,0,1-2.979.662,6.132,6.132,0,0,1-3.966-1.284,4.108,4.108,0,0,1-1.5-3.251,4.153,4.153,0,0,1,1.516-3.251A6.1,6.1,0,0,1,62.865,93.6a6.762,6.762,0,0,1,2.844.581,4.356,4.356,0,0,1,1.865,1.552l.349.545L70.8,94.614,70.314,94a8.1,8.1,0,0,0-3.178-2.41,10.634,10.634,0,0,0-4.259-.841A9.813,9.813,0,0,0,56.6,92.785a6.843,6.843,0,0,0,0,10.675,9.87,9.87,0,0,0,6.278,2.032,10.565,10.565,0,0,0,4.555-.906,7.883,7.883,0,0,0,3.251-2.808l.386-.589-.6-.362Z" transform="translate(0 -0.332)"/>
    <path id="Path_6190" data-name="Path 6190" d="M127.024,92.881a10.646,10.646,0,0,0-12.569,0,6.839,6.839,0,0,0,0,10.675,10.7,10.7,0,0,0,12.569,0,6.819,6.819,0,0,0,0-10.675Zm-2.328,8.558a6.656,6.656,0,0,1-7.916,0,4.2,4.2,0,0,1,0-6.457,6.624,6.624,0,0,1,7.916,0,4.2,4.2,0,0,1,0,6.449Z" transform="translate(-34.345 -0.379)"/>
    <path id="Path_6191" data-name="Path 6191" d="M189.754,92.129a7.835,7.835,0,0,0-3.2-.593H174.82v14.149h3.324v-5.608h8.684a5.982,5.982,0,0,0,3.881-1.219,4.064,4.064,0,0,0,1.479-3.182,3.743,3.743,0,0,0-.406-1.755,4,4,0,0,0-2.028-1.792Zm-.979,3.694a1.361,1.361,0,0,1-.122.6,1.219,1.219,0,0,1-.654.565,4.063,4.063,0,0,1-1.564.248h-8.29V94.356h8.391a3.015,3.015,0,0,1,1.768.435,1.114,1.114,0,0,1,.354.406,1.381,1.381,0,0,1,.118.622Z" transform="translate(-71.701 -0.798)"/>
    <path id="Path_6192" data-name="Path 6192" d="M248.618,92.882a10.655,10.655,0,0,0-12.573,0,6.839,6.839,0,0,0,0,10.675,10.7,10.7,0,0,0,12.565,0,6.815,6.815,0,0,0,0-10.675Zm-2.328,8.558a6.664,6.664,0,0,1-7.92,0,4.2,4.2,0,0,1,0-6.457,6.624,6.624,0,0,1,7.916,0,4.21,4.21,0,0,1,0,6.449Z" transform="translate(-106.526 -0.38)"/>
    <path id="Path_6193" data-name="Path 6193" d="M299.946,91.53H296.63v14.149h13.613v-2.824h-10.3Z" transform="translate(-144.013 -0.795)"/>
    <path id="Path_6194" data-name="Path 6194" d="M347.1,92.035v13.593h3.344V91.36H347.1Z" transform="translate(-173.974 -0.695)"/>
    <path id="Path_6195" data-name="Path 6195" d="M368.49,94.354h6.64v11.325h3.316V94.354h6.64V91.53h-16.6Z" transform="translate(-186.672 -0.795)"/>
    <path id="Path_6196" data-name="Path 6196" d="M419.882,91.53l-.2.325-8.342,13.816h3.686l2.076-3.442h7.965l2.133,3.442h3.718L422.279,91.53Zm3.474,7.859h-4.523l2.251-3.7Z" transform="translate(-212.11 -0.795)"/>
    <path id="Path_6197" data-name="Path 6197" d="M486.454,91.53v8.688l-9.3-8.688H475.19v14.149H478.5V96.991l9.33,8.688h1.938V91.53Z" transform="translate(-250.014 -0.795)"/>
    <path id="Path_6198" data-name="Path 6198" d="M544.787,107.939a2.288,2.288,0,1,1,0-4.572Z" transform="translate(-289.915 -7.821)"/>
    <path id="Path_6199" data-name="Path 6199" d="M548.27,104.2a1.475,1.475,0,0,1,0,2.946v.813a2.28,2.28,0,1,0,0-4.555v.813Z" transform="translate(-293.398 -7.845)"/>
    <path id="Path_6200" data-name="Path 6200" d="M600.18,92.234v2.438l-1.816,1.662-1.625,1.487,1.625,1.487,1.816,1.662v2.438h-3.657l-1.532-1.723-.122-.138-.142-.11a2.206,2.206,0,0,0-2.727,0l-.142.114-.122.138-1.524,1.719h-3.657v-2.438L588.38,99.3l1.625-1.487L588.38,96.33l-1.824-1.666V92.226h3.608l1.512,1.857.106.13.126.11a2.215,2.215,0,0,0,2.922,0l.126-.11.106-.13,1.52-1.861h3.6m2.032-2.032h-6.571l-2.125,2.6-.13.049-.13-.049-2.117-2.6H584.56v5.352l2.479,2.263-2.479,2.263v5.352h6.579l2.125-2.4.122-.045.122.041,2.133,2.4h6.571V100.1l-2.475-2.263,2.475-2.263Z" transform="translate(-314.941)"/>
  </g>
</svg>
