<svg id="Group_2721" data-name="Group 2721" xmlns="http://www.w3.org/2000/svg" width="18" height="24.775" viewBox="0 0 18 24.775">
  <g id="Group_20" data-name="Group 20">
    <g id="Group_19" data-name="Group 19">
      <path id="Path_106" data-name="Path 106" d="M87.2,2.492H82.774V.81A.809.809,0,0,0,81.966,0H76.048a.809.809,0,0,0-.808.81V2.492H70.815a.809.809,0,0,0-.808.81V5.8a.809.809,0,0,0,.808.81H87.2a.809.809,0,0,0,.808-.81V3.3A.809.809,0,0,0,87.2,2.492Zm-6.041,0h-4.3V1.62h4.3Z" transform="translate(-70.007)" fill="#fff"/>
    </g>
  </g>
  <g id="Group_22" data-name="Group 22" transform="translate(1.125 8.154)">
    <g id="Group_21" data-name="Group 21" transform="translate(0)">
      <path id="Path_107" data-name="Path 107" d="M93.192,169.5l.67,15.846a.809.809,0,0,0,.807.776h12.8a.809.809,0,0,0,.807-.776l.67-15.846Zm5.434,13.327a.808.808,0,1,1-1.615,0V172.792a.808.808,0,1,1,1.615,0Zm3.249,0a.808.808,0,1,1-1.615,0V172.792a.808.808,0,1,1,1.615,0Zm3.249,0a.808.808,0,1,1-1.615,0V172.792a.808.808,0,1,1,1.615,0Z" transform="translate(-93.192 -169.497)" fill="#fff"/>
    </g>
  </g>
</svg>
