<svg xmlns="http://www.w3.org/2000/svg" width="13.489" height="18.566" viewBox="0 0 13.489 18.566">
  <g id="Group_2149" data-name="Group 2149" transform="translate(-1840 -642.489)">
    <g id="Group_20" data-name="Group 20" transform="translate(1840 642.489)">
      <g id="Group_19" data-name="Group 19">
        <path id="Path_106" data-name="Path 106" d="M82.891,1.868H79.574V.607A.606.606,0,0,0,78.969,0H74.534a.606.606,0,0,0-.605.607V1.868H70.612a.606.606,0,0,0-.605.607V4.343a.606.606,0,0,0,.605.607H82.891a.606.606,0,0,0,.605-.607V2.475A.606.606,0,0,0,82.891,1.868Zm-4.527,0H75.14V1.214h3.224Z" transform="translate(-70.007)" fill="white"/>
      </g>
    </g>
    <g id="Group_22" data-name="Group 22" transform="translate(1840.843 648.599)">
      <g id="Group_21" data-name="Group 21" transform="translate(0)">
        <path id="Path_107" data-name="Path 107" d="M93.192,169.5l.5,11.875a.606.606,0,0,0,.6.581h9.59a.606.606,0,0,0,.6-.581l.5-11.875Zm4.072,9.987a.605.605,0,1,1-1.21,0v-7.518a.605.605,0,1,1,1.21,0Zm2.434,0a.605.605,0,1,1-1.21,0v-7.518a.605.605,0,1,1,1.21,0Zm2.435,0a.605.605,0,1,1-1.21,0v-7.518a.605.605,0,1,1,1.21,0Z" transform="translate(-93.192 -169.497)" fill="white"/>
      </g>
    </g>
  </g>
</svg>
