<svg id="export" xmlns="http://www.w3.org/2000/svg" width="18" height="18" viewBox="0 0 18 18">
  <path id="Path_3109" data-name="Path 3109" d="M18.032,23.348H15.044v1.773h2.989c.889,0,1.578.454,1.578.845v7.863c0,.391-.69.845-1.578.845H6.736c-.889,0-1.578-.454-1.578-.845V25.966c0-.391.69-.845,1.578-.845H9.724V23.348H6.736c-1.879,0-3.352,1.15-3.352,2.618V33.83c0,1.468,1.472,2.618,3.352,2.618h11.3c1.879,0,3.352-1.15,3.352-2.618V25.966C21.384,24.5,19.912,23.348,18.032,23.348Z" transform="translate(-3.384 -18.448)" fill="#fff"/>
  <path id="Path_3110" data-name="Path 3110" d="M22.843,4.42a.883.883,0,0,0,.627-.26l1.11-1.11v9.021a.887.887,0,1,0,1.773,0V2.99l1.17,1.17a.887.887,0,1,0,1.254-1.254L26.13.259A.883.883,0,0,0,25.5,0H25.49a.883.883,0,0,0-.627.259L22.216,2.906a.887.887,0,0,0,.627,1.514Z" transform="translate(34.525 12.958) rotate(180)" fill="#fff"/>
</svg>
