<svg xmlns="http://www.w3.org/2000/svg" width="26" height="19.17" viewBox="0 0 26 19.17">
  <g id="Group_3132" data-name="Group 3132" transform="translate(-1732 -248)">
    <path id="Path_3924" data-name="Path 3924" d="M3.333,4.9h2.8l.1.293a2.876,2.876,0,0,0,5.449,0l.1-.293h16.3a.623.623,0,1,0,0-1.246h-16.3l-.1-.293a2.876,2.876,0,0,0-5.449,0l-.1.293h-2.8a.623.623,0,1,0,0,1.246Zm5.62-2.248A1.625,1.625,0,1,1,7.328,4.281,1.632,1.632,0,0,1,8.953,2.656Z" transform="translate(1729.29 246.59)" fill="#fff"/>
    <path id="Path_3925" data-name="Path 3925" d="M28.062,9.158h-2.8l-.1-.293a2.876,2.876,0,0,0-5.449,0l-.1.293H3.333a.623.623,0,0,0,0,1.246h16.3l.1.281a2.876,2.876,0,0,0,5.449,0l.1-.293h2.8a.617.617,0,1,0-.012-1.234Zm-5.62,2.248a1.625,1.625,0,1,1,1.625-1.625A1.632,1.632,0,0,1,22.442,11.406Z" transform="translate(1729.29 247.81)" fill="#fff"/>
    <path id="Path_3926" data-name="Path 3926" d="M28.062,14.648H16.26l-.086-.293a2.876,2.876,0,0,0-5.449,0l-.1.293H3.333a.623.623,0,1,0,0,1.246H10.64l.1.293a2.876,2.876,0,0,0,5.449,0l.1-.293h11.8a.626.626,0,0,0,.623-.623A.647.647,0,0,0,28.062,14.648ZM13.45,16.9a1.625,1.625,0,1,1,1.625-1.625A1.632,1.632,0,0,1,13.45,16.9Z" transform="translate(1729.29 249.028)" fill="#fff"/>
  </g>
</svg>
