<svg fill="#fff" id="Page-1" xmlns="http://www.w3.org/2000/svg" viewBox="0 0 25.05 23.857">
	<g id="Dribbble-Light-Preview">
		<g id="icons">
			<path id="save_item-_1411_" data-name="save_item-[#1411]" d="M371.611,484.771a1.254,1.254,0,1,1,1.253,1.193,1.224,1.224,0,0,1-1.253-1.193Zm8.924,16.7h-10.02v-3.579a1.224,1.224,0,0,1,1.253-1.193h7.515a1.224,1.224,0,0,1,1.253,1.193Zm-10.02-18.087,1.048-1h8.972v3.579a1.224,1.224,0,0,1-1.253,1.193h-7.515a1.224,1.224,0,0,1-1.253-1.193ZM385.545,480H371.034a1.285,1.285,0,0,0-.886.349l-6.78,6.458a1.161,1.161,0,0,0-.367.843v13.82a2.447,2.447,0,0,0,2.505,2.386h20.04a2.447,2.447,0,0,0,2.505-2.386V482.386A2.447,2.447,0,0,0,385.545,480Z" transform="translate(-363 -480)" />
		</g>
	</g>
</svg>
